<svg xmlns="http://www.w3.org/2000/svg" viewBox="0 0 64 64">
  <defs>
    <linearGradient id="g" x1="0" x2="1" y1="0" y2="1">
      <stop offset="0" stop-color="#2c7873"/>
      <stop offset="1" stop-color="#6fb98f"/>
    </linearGradient>
  </defs>
  <rect width="64" height="64" rx="12" fill="url(#g)"/>
  <g fill="#fff">
    <circle cx="20" cy="22" r="4"/>
    <path d="M28 18h18a2 2 0 0 1 0 4H28a2 2 0 0 1 0-4zm0 10h18a2 2 0 0 1 0 4H28a2 2 0 0 1 0-4zm0 10h12a2 2 0 0 1 0 4H28a2 2 0 0 1 0-4z"/>
  </g>
</svg>

